<!--?xml version="1.0" standalone="no"?-->
<svg xmlns="http://www.w3.org/2000/svg" version="1.2" baseProfile="tiny" width="556" height="309">
[<rect x="0" y="0" width="555" height="308" fill="rgb(145,145,145)" fill-opacity="1"></rect>,<polygon points="2,136 0,308 555,308" fill="rgb(0,0,0)" fill-opacity="0.35294117647058826"></polygon>,<polygon points="554,202 0,308 555,308" fill="rgb(0,0,0)" fill-opacity="0.35294117647058826"></polygon>,<polygon points="554,270 555,0 0,0" fill="rgb(255,255,255)" fill-opacity="0.35294117647058826"></polygon>,<polygon points="555,308 548,190 0,276" fill="rgb(9,9,9)" fill-opacity="0.35294117647058826"></polygon>,<polygon points="1,206 555,308 0,308" fill="rgb(0,0,0)" fill-opacity="0.35294117647058826"></polygon>,<polygon points="555,219 405,279 296,0" fill="rgb(205,205,205)" fill-opacity="0.35294117647058826"></polygon>,<polygon points="0,308 406,308 290,195" fill="rgb(0,0,0)" fill-opacity="0.35294117647058826"></polygon>,<polygon points="555,0 0,0 0,240" fill="rgb(243,243,243)" fill-opacity="0.35294117647058826"></polygon>,<polygon points="555,160 181,0 555,0" fill="rgb(247,247,247)" fill-opacity="0.35294117647058826"></polygon>,<polygon points="555,308 555,238 488,308" fill="rgb(7,7,7)" fill-opacity="0.35294117647058826"></polygon>,<polygon points="359,282 299,202 367,215" fill="rgb(82,82,82)" fill-opacity="0.35294117647058826"></polygon>,<polygon points="382,308 0,262 0,308" fill="rgb(0,0,0)" fill-opacity="0.35294117647058826"></polygon>,<polygon points="233,179 397,194 3,3" fill="rgb(209,209,209)" fill-opacity="0.35294117647058826"></polygon>,<polygon points="543,250 449,302 286,212" fill="rgb(89,89,89)" fill-opacity="0.35294117647058826"></polygon>,<polygon points="0,245 2,92 314,211" fill="rgb(117,117,117)" fill-opacity="0.35294117647058826"></polygon>,<polygon points="555,243 555,123 261,202" fill="rgb(161,161,161)" fill-opacity="0.35294117647058826"></polygon>,<polygon points="326,186 115,208 144,98" fill="rgb(161,161,161)" fill-opacity="0.35294117647058826"></polygon>,<polygon points="2,179 231,229 0,255" fill="rgb(70,70,70)" fill-opacity="0.35294117647058826"></polygon>,<polygon points="454,221 555,234 439,286" fill="rgb(119,119,119)" fill-opacity="0.35294117647058826"></polygon>,<polygon points="4,274 33,218 0,223" fill="rgb(51,51,51)" fill-opacity="0.35294117647058826"></polygon>,<polygon points="221,154 555,163 307,11" fill="rgb(203,203,203)" fill-opacity="0.35294117647058826"></polygon>,<polygon points="555,230 292,187 555,176" fill="rgb(164,164,164)" fill-opacity="0.35294117647058826"></polygon>,<polygon points="0,0 144,71 70,0" fill="rgb(180,180,180)" fill-opacity="0.35294117647058826"></polygon>,<polygon points="477,272 159,220 0,292" fill="rgb(32,32,32)" fill-opacity="0.35294117647058826"></polygon>,<polygon points="196,236 293,210 245,189" fill="rgb(95,95,96)" fill-opacity="0.35294117647058826"></polygon>,<polygon points="322,216 261,226 448,303" fill="rgb(58,58,58)" fill-opacity="0.35294117647058826"></polygon>,<polygon points="4,164 308,183 1,69" fill="rgb(168,168,168)" fill-opacity="0.35294117647058826"></polygon>,<polygon points="555,208 499,81 487,215" fill="rgb(187,187,187)" fill-opacity="0.35294117647058826"></polygon>,<polygon points="1,272 67,285 0,308" fill="rgb(4,4,4)" fill-opacity="0.35294117647058826"></polygon>,<polygon points="513,294 555,283 555,307" fill="rgb(3,3,3)" fill-opacity="0.35294117647058826"></polygon>,<polygon points="314,104 125,50 221,153" fill="rgb(184,184,184)" fill-opacity="0.35294117647058826"></polygon>,<polygon points="555,274 526,280 517,233" fill="rgb(81,81,81)" fill-opacity="0.35294117647058826"></polygon>,<polygon points="384,242 265,190 555,230" fill="rgb(131,131,131)" fill-opacity="0.35294117647058826"></polygon>,<polygon points="520,270 555,222 555,271" fill="rgb(83,83,83)" fill-opacity="0.35294117647058826"></polygon>,<polygon points="205,176 41,145 125,226" fill="rgb(135,135,135)" fill-opacity="0.35294117647058826"></polygon>,<polygon points="94,308 172,234 0,265" fill="rgb(35,35,35)" fill-opacity="0.35294117647058826"></polygon>,<polygon points="555,71 555,0 386,75" fill="rgb(229,229,229)" fill-opacity="0.35294117647058826"></polygon>,<polygon points="387,232 400,288 459,259" fill="rgb(66,66,66)" fill-opacity="0.35294117647058826"></polygon>,<polygon points="140,182 312,221 400,215" fill="rgb(119,119,118)" fill-opacity="0.35294117647058826"></polygon>,<polygon points="0,49 0,1 0,211" fill="rgb(255,255,255)" fill-opacity="0.35294117647058826"></polygon>,<polygon points="498,308 350,308 430,292" fill="rgb(10,10,10)" fill-opacity="0.35294117647058826"></polygon>,<polygon points="308,261 243,250 252,219" fill="rgb(14,14,14)" fill-opacity="0.35294117647058826"></polygon>,<polygon points="32,232 0,171 235,204" fill="rgb(115,115,115)" fill-opacity="0.35294117647058826"></polygon>,<polygon points="313,217 203,163 275,175" fill="rgb(142,142,142)" fill-opacity="0.35294117647058826"></polygon>,<polygon points="504,305 530,250 451,302" fill="rgb(49,48,49)" fill-opacity="0.35294117647058826"></polygon>,<polygon points="490,288 422,232 424,276" fill="rgb(91,91,91)" fill-opacity="0.35294117647058826"></polygon>,<polygon points="471,124 314,116 178,0" fill="rgb(215,215,215)" fill-opacity="0.35294117647058826"></polygon>,<polygon points="371,197 111,121 464,142" fill="rgb(175,175,175)" fill-opacity="0.35294117647058826"></polygon>,<polygon points="495,256 555,216 471,240" fill="rgb(120,120,120)" fill-opacity="0.35294117647058826"></polygon>,<polygon points="211,196 234,190 234,241" fill="rgb(117,117,117)" fill-opacity="0.35294117647058826"></polygon>,<polygon points="182,247 154,195 184,205" fill="rgb(109,109,109)" fill-opacity="0.35294117647058826"></polygon>,<polygon points="183,215 218,226 206,257" fill="rgb(72,72,72)" fill-opacity="0.35294117647058826"></polygon>,<polygon points="480,306 243,286 414,270" fill="rgb(34,34,34)" fill-opacity="0.35294117647058826"></polygon>,<polygon points="151,232 165,204 168,264" fill="rgb(39,39,39)" fill-opacity="0.35294117647058826"></polygon>,<polygon points="188,220 200,303 183,235" fill="rgb(18,18,18)" fill-opacity="0.35294117647058826"></polygon>,<polygon points="254,71 96,0 329,1" fill="rgb(214,214,214)" fill-opacity="0.35294117647058826"></polygon>,<polygon points="528,193 243,179 467,233" fill="rgb(156,156,156)" fill-opacity="0.35294117647058826"></polygon>,<polygon points="1,97 82,147 307,115" fill="rgb(182,182,182)" fill-opacity="0.35294117647058826"></polygon>,<polygon points="2,155 152,188 1,111" fill="rgb(156,156,156)" fill-opacity="0.35294117647058826"></polygon>,<polygon points="31,64 163,125 0,2" fill="rgb(198,198,198)" fill-opacity="0.35294117647058826"></polygon>,<polygon points="353,226 488,277 388,263" fill="rgb(85,85,85)" fill-opacity="0.35294117647058826"></polygon>,<polygon points="104,204 111,252 164,223" fill="rgb(80,80,80)" fill-opacity="0.35294117647058826"></polygon>,<polygon points="425,229 409,252 345,212" fill="rgb(122,122,122)" fill-opacity="0.35294117647058826"></polygon>,<polygon points="0,8 0,0 0,177" fill="rgb(255,255,255)" fill-opacity="0.35294117647058826"></polygon>,<polygon points="82,217 0,196 54,255" fill="rgb(94,93,94)" fill-opacity="0.35294117647058826"></polygon>,<polygon points="292,271 323,214 337,276" fill="rgb(27,27,27)" fill-opacity="0.35294117647058826"></polygon>,<polygon points="292,191 371,145 442,193" fill="rgb(170,170,170)" fill-opacity="0.35294117647058826"></polygon>,<polygon points="203,308 276,289 283,308" fill="rgb(0,0,0)" fill-opacity="0.35294117647058826"></polygon>,<polygon points="155,157 235,212 111,192" fill="rgb(138,138,138)" fill-opacity="0.35294117647058826"></polygon>,<polygon points="520,244 428,284 555,255" fill="rgb(81,81,81)" fill-opacity="0.35294117647058826"></polygon>,<polygon points="268,203 298,237 235,206" fill="rgb(83,83,83)" fill-opacity="0.35294117647058826"></polygon>,<polygon points="309,209 374,224 340,235" fill="rgb(108,108,108)" fill-opacity="0.35294117647058826"></polygon>,<polygon points="5,37 59,9 2,-5" fill="rgb(182,182,182)" fill-opacity="0.35294117647058826"></polygon>,<polygon points="0,250 0,277 114,277" fill="rgb(44,44,44)" fill-opacity="0.35294117647058826"></polygon>,<polygon points="463,263 427,248 555,236" fill="rgb(105,105,105)" fill-opacity="0.35294117647058826"></polygon>,<polygon points="383,245 391,219 399,257" fill="rgb(88,88,88)" fill-opacity="0.35294117647058826"></polygon>,<polygon points="3,154 58,223 119,197" fill="rgb(124,124,124)" fill-opacity="0.35294117647058826"></polygon>,<polygon points="166,240 180,256 184,232" fill="rgb(67,67,67)" fill-opacity="0.35294117647058826"></polygon>,<polygon points="89,303 96,224 129,299" fill="rgb(25,25,25)" fill-opacity="0.35294117647058826"></polygon>,<polygon points="236,202 245,229 252,209" fill="rgb(107,107,107)" fill-opacity="0.35294117647058826"></polygon>,<polygon points="93,201 167,196 221,217" fill="rgb(110,110,110)" fill-opacity="0.35294117647058826"></polygon>,<polygon points="555,173 555,99 256,116" fill="rgb(195,195,195)" fill-opacity="0.35294117647058826"></polygon>,<polygon points="366,252 318,206 344,258" fill="rgb(89,89,89)" fill-opacity="0.35294117647058826"></polygon>,<polygon points="186,89 268,150 333,137" fill="rgb(190,190,190)" fill-opacity="0.35294117647058826"></polygon>,<polygon points="554,252 555,287 529,295" fill="rgb(48,48,48)" fill-opacity="0.35294117647058826"></polygon>,<polygon points="411,272 454,293 455,273" fill="rgb(64,64,64)" fill-opacity="0.35294117647058826"></polygon>,<polygon points="349,84 353,152 27,44" fill="rgb(198,198,198)" fill-opacity="0.35294117647058826"></polygon>,<polygon points="132,196 317,212 263,186" fill="rgb(126,126,126)" fill-opacity="0.35294117647058826"></polygon>,<polygon points="531,273 488,301 429,290" fill="rgb(48,48,48)" fill-opacity="0.35294117647058826"></polygon>,<polygon points="100,161 197,143 255,188" fill="rgb(159,159,159)" fill-opacity="0.35294117647058826"></polygon>,<polygon points="487,293 466,286 523,248" fill="rgb(64,64,64)" fill-opacity="0.35294117647058826"></polygon>,<polygon points="490,232 454,252 418,217" fill="rgb(126,126,126)" fill-opacity="0.35294117647058826"></polygon>,<polygon points="229,223 225,214 191,232" fill="rgb(83,83,82)" fill-opacity="0.35294117647058826"></polygon>,<polygon points="88,240 63,249 75,202" fill="rgb(77,77,77)" fill-opacity="0.35294117647058826"></polygon>,<polygon points="201,239 197,231 173,305" fill="rgb(24,24,24)" fill-opacity="0.35294117647058826"></polygon>,<polygon points="421,235 395,201 342,211" fill="rgb(139,139,139)" fill-opacity="0.35294117647058826"></polygon>,<polygon points="486,297 527,262 538,295" fill="rgb(40,40,40)" fill-opacity="0.35294117647058826"></polygon>,<polygon points="547,46 511,122 346,39" fill="rgb(211,211,211)" fill-opacity="0.35294117647058826"></polygon>,<polygon points="6,192 0,174 138,196" fill="rgb(125,125,125)" fill-opacity="0.35294117647058826"></polygon>,<polygon points="97,243 94,220 104,232" fill="rgb(37,36,37)" fill-opacity="0.35294117647058826"></polygon>,<polygon points="257,212 290,244 220,240" fill="rgb(47,47,47)" fill-opacity="0.35294117647058826"></polygon>,<polygon points="322,209 322,225 304,221" fill="rgb(100,100,101)" fill-opacity="0.35294117647058826"></polygon>,<polygon points="434,284 325,250 358,284" fill="rgb(40,40,40)" fill-opacity="0.35294117647058826"></polygon>,<polygon points="393,254 363,244 341,262" fill="rgb(54,54,54)" fill-opacity="0.35294117647058826"></polygon>,<polygon points="358,202 451,199 415,221" fill="rgb(153,153,153)" fill-opacity="0.35294117647058826"></polygon>,<polygon points="555,236 555,260 525,253" fill="rgb(98,98,98)" fill-opacity="0.35294117647058826"></polygon>,<polygon points="555,236 529,235 554,194" fill="rgb(138,138,138)" fill-opacity="0.35294117647058826"></polygon>,<polygon points="155,236 166,258 59,288" fill="rgb(33,33,33)" fill-opacity="0.35294117647058826"></polygon>,<polygon points="546,279 530,253 497,267" fill="rgb(67,67,67)" fill-opacity="0.35294117647058826"></polygon>,<polygon points="1,212 15,250 39,219" fill="rgb(83,83,83)" fill-opacity="0.35294117647058826"></polygon>,<polygon points="93,258 6,229 0,247" fill="rgb(64,64,64)" fill-opacity="0.35294117647058826"></polygon>,<polygon points="273,211 258,213 267,242" fill="rgb(78,78,78)" fill-opacity="0.35294117647058826"></polygon>,<polygon points="0,308 218,289 188,257" fill="rgb(22,22,22)" fill-opacity="0.35294117647058826"></polygon>,<polygon points="555,140 447,209 555,202" fill="rgb(174,174,174)" fill-opacity="0.35294117647058826"></polygon>,<polygon points="480,278 486,242 429,272" fill="rgb(94,94,94)" fill-opacity="0.35294117647058826"></polygon>,<polygon points="355,128 242,157 351,173" fill="rgb(181,181,181)" fill-opacity="0.35294117647058826"></polygon>,<polygon points="114,188 36,213 146,219" fill="rgb(108,108,108)" fill-opacity="0.35294117647058826"></polygon>,<polygon points="185,170 179,134 295,155" fill="rgb(170,169,170)" fill-opacity="0.35294117647058826"></polygon>,<polygon points="135,238 124,270 98,239" fill="rgb(53,53,53)" fill-opacity="0.35294117647058826"></polygon>,<polygon points="455,308 389,288 405,308" fill="rgb(15,15,15)" fill-opacity="0.35294117647058826"></polygon>,<polygon points="361,247 287,229 284,212" fill="rgb(66,66,66)" fill-opacity="0.35294117647058826"></polygon>,<polygon points="502,229 513,185 555,188" fill="rgb(162,162,162)" fill-opacity="0.35294117647058826"></polygon>,<polygon points="138,230 132,225 117,241" fill="rgb(80,80,80)" fill-opacity="0.35294117647058826"></polygon>,<polygon points="154,233 161,203 171,240" fill="rgb(55,55,55)" fill-opacity="0.35294117647058826"></polygon>,<polygon points="42,45 58,0 217,73" fill="rgb(199,199,199)" fill-opacity="0.35294117647058826"></polygon>,<polygon points="263,179 258,196 179,195" fill="rgb(141,141,141)" fill-opacity="0.35294117647058826"></polygon>,<polygon points="106,308 193,301 195,308" fill="rgb(5,5,5)" fill-opacity="0.35294117647058826"></polygon>,<polygon points="96,283 95,252 11,264" fill="rgb(45,45,45)" fill-opacity="0.35294117647058826"></polygon>,<polygon points="74,298 0,308 3,275" fill="rgb(21,21,21)" fill-opacity="0.35294117647058826"></polygon>,<polygon points="2,23 47,97 218,135" fill="rgb(185,185,185)" fill-opacity="0.35294117647058826"></polygon>,<polygon points="125,296 127,308 143,299" fill="rgb(0,0,0)" fill-opacity="0.35294117647058826"></polygon>,<polygon points="296,202 284,199 279,171" fill="rgb(154,154,154)" fill-opacity="0.35294117647058826"></polygon>,<polygon points="359,269 279,239 368,308" fill="rgb(24,24,24)" fill-opacity="0.35294117647058826"></polygon>,<polygon points="318,137 555,153 555,109" fill="rgb(194,194,194)" fill-opacity="0.35294117647058826"></polygon>,<polygon points="293,308 431,308 199,274" fill="rgb(16,16,16)" fill-opacity="0.35294117647058826"></polygon>,<polygon points="81,235 93,215 118,214" fill="rgb(85,86,86)" fill-opacity="0.35294117647058826"></polygon>,<polygon points="134,226 136,201 146,220" fill="rgb(106,106,106)" fill-opacity="0.35294117647058826"></polygon>,<polygon points="35,182 1,148 167,187" fill="rgb(139,139,139)" fill-opacity="0.35294117647058826"></polygon>,<polygon points="389,278 437,262 381,253" fill="rgb(66,66,66)" fill-opacity="0.35294117647058826"></polygon>,<polygon points="142,242 149,243 148,212" fill="rgb(52,52,52)" fill-opacity="0.35294117647058826"></polygon>,<polygon points="180,203 209,195 205,231" fill="rgb(117,117,117)" fill-opacity="0.35294117647058826"></polygon>,<polygon points="175,262 214,260 187,230" fill="rgb(32,32,32)" fill-opacity="0.35294117647058826"></polygon>,<polygon points="108,249 118,201 102,220" fill="rgb(89,89,89)" fill-opacity="0.35294117647058826"></polygon>,<polygon points="264,284 186,293 259,226" fill="rgb(20,20,20)" fill-opacity="0.35294117647058826"></polygon>,<polygon points="1,146 193,153 1,82" fill="rgb(166,166,166)" fill-opacity="0.35294117647058826"></polygon>,<polygon points="21,284 45,252 11,262" fill="rgb(50,50,50)" fill-opacity="0.35294117647058826"></polygon>,<polygon points="533,308 555,278 555,308" fill="rgb(21,21,21)" fill-opacity="0.35294117647058826"></polygon>,<polygon points="241,218 249,222 243,241" fill="rgb(82,82,82)" fill-opacity="0.35294117647058826"></polygon>,<polygon points="118,258 119,224 109,260" fill="rgb(39,39,39)" fill-opacity="0.35294117647058826"></polygon>,<polygon points="552,220 555,244 537,248" fill="rgb(114,114,114)" fill-opacity="0.35294117647058826"></polygon>,<polygon points="428,56 555,0 555,28" fill="rgb(222,222,222)" fill-opacity="0.35294117647058826"></polygon>,<polygon points="30,304 67,296 65,255" fill="rgb(22,22,22)" fill-opacity="0.35294117647058826"></polygon>,<polygon points="555,214 481,215 555,191" fill="rgb(159,159,159)" fill-opacity="0.35294117647058826"></polygon>,<polygon points="311,234 276,233 327,221" fill="rgb(64,64,64)" fill-opacity="0.35294117647058826"></polygon>,<polygon points="281,195 279,249 278,228" fill="rgb(109,109,109)" fill-opacity="0.35294117647058826"></polygon>,<polygon points="248,0 94,1 315,64" fill="rgb(212,212,212)" fill-opacity="0.35294117647058826"></polygon>,<polygon points="237,243 230,254 223,216" fill="rgb(67,67,67)" fill-opacity="0.35294117647058826"></polygon>,<polygon points="313,0 367,48 293,35" fill="rgb(222,222,222)" fill-opacity="0.35294117647058826"></polygon>,<polygon points="188,80 367,115 221,25" fill="rgb(205,205,205)" fill-opacity="0.35294117647058826"></polygon>,<polygon points="301,223 279,213 305,210" fill="rgb(97,97,97)" fill-opacity="0.35294117647058826"></polygon>,<polygon points="335,232 381,233 349,257" fill="rgb(81,81,81)" fill-opacity="0.35294117647058826"></polygon>,<polygon points="555,39 463,108 555,80" fill="rgb(208,208,208)" fill-opacity="0.35294117647058826"></polygon>,<polygon points="555,174 371,169 555,134" fill="rgb(187,187,187)" fill-opacity="0.35294117647058826"></polygon>,<polygon points="71,228 1,192 1,223" fill="rgb(100,100,100)" fill-opacity="0.35294117647058826"></polygon>,<polygon points="424,19 482,95 270,87" fill="rgb(210,210,210)" fill-opacity="0.35294117647058826"></polygon>,<polygon points="74,231 75,273 67,273" fill="rgb(64,63,64)" fill-opacity="0.35294117647058826"></polygon>,<polygon points="228,236 218,269 223,221" fill="rgb(26,26,26)" fill-opacity="0.35294117647058826"></polygon>,<polygon points="555,258 546,252 541,278" fill="rgb(67,67,67)" fill-opacity="0.35294117647058826"></polygon>,<polygon points="443,276 469,286 438,290" fill="rgb(60,60,60)" fill-opacity="0.35294117647058826"></polygon>,<polygon points="431,286 410,254 439,271" fill="rgb(73,73,73)" fill-opacity="0.35294117647058826"></polygon>,<polygon points="548,219 505,234 453,213" fill="rgb(146,146,146)" fill-opacity="0.35294117647058826"></polygon>,<polygon points="377,276 381,245 352,273" fill="rgb(42,42,42)" fill-opacity="0.35294117647058826"></polygon>,<polygon points="190,246 222,235 215,253" fill="rgb(43,43,43)" fill-opacity="0.35294117647058826"></polygon>,<polygon points="72,281 0,267 21,301" fill="rgb(28,28,28)" fill-opacity="0.35294117647058826"></polygon>,<polygon points="555,308 509,291 498,308" fill="rgb(23,23,23)" fill-opacity="0.35294117647058826"></polygon>,<polygon points="0,134 278,183 139,181" fill="rgb(151,151,151)" fill-opacity="0.35294117647058826"></polygon>,<polygon points="245,275 236,231 324,243" fill="rgb(28,28,28)" fill-opacity="0.35294117647058826"></polygon>,<polygon points="420,251 395,260 467,280" fill="rgb(81,81,81)" fill-opacity="0.35294117647058826"></polygon>,<polygon points="491,237 549,234 461,258" fill="rgb(111,111,111)" fill-opacity="0.35294117647058826"></polygon>,<polygon points="336,275 349,274 335,246" fill="rgb(32,32,32)" fill-opacity="0.35294117647058826"></polygon>,<polygon points="328,204 307,220 289,198" fill="rgb(127,127,128)" fill-opacity="0.35294117647058826"></polygon>,<polygon points="532,284 565,270 555,259" fill="rgb(59,59,59)" fill-opacity="0.35294117647058826"></polygon>,<polygon points="239,207 190,226 235,225" fill="rgb(90,90,90)" fill-opacity="0.35294117647058826"></polygon>,<polygon points="200,234 205,240 242,223" fill="rgb(65,65,65)" fill-opacity="0.35294117647058826"></polygon>,<polygon points="500,210 299,172 352,201" fill="rgb(163,163,163)" fill-opacity="0.35294117647058826"></polygon>,<polygon points="198,153 326,187 157,159" fill="rgb(162,162,162)" fill-opacity="0.35294117647058826"></polygon>,<polygon points="174,227 183,229 190,206" fill="rgb(106,106,106)" fill-opacity="0.35294117647058826"></polygon>,<polygon points="1,203 18,184 1,147" fill="rgb(128,128,128)" fill-opacity="0.35294117647058826"></polygon>,<polygon points="271,188 288,192 281,218" fill="rgb(135,135,135)" fill-opacity="0.35294117647058826"></polygon>,<polygon points="159,206 150,194 233,215" fill="rgb(118,118,118)" fill-opacity="0.35294117647058826"></polygon>,<polygon points="293,308 307,294 307,308" fill="rgb(0,0,0)" fill-opacity="0.35294117647058826"></polygon>,<polygon points="243,215 254,197 268,212" fill="rgb(104,104,104)" fill-opacity="0.35294117647058826"></polygon>,<polygon points="325,211 381,219 333,228" fill="rgb(120,120,121)" fill-opacity="0.35294117647058826"></polygon>,<polygon points="359,125 348,155 511,175" fill="rgb(186,186,186)" fill-opacity="0.35294117647058826"></polygon>,<polygon points="275,197 216,210 275,209" fill="rgb(108,107,108)" fill-opacity="0.35294117647058826"></polygon>,<polygon points="314,52 536,97 407,120" fill="rgb(206,206,206)" fill-opacity="0.35294117647058826"></polygon>,<polygon points="372,263 402,281 423,271" fill="rgb(52,52,52)" fill-opacity="0.35294117647058826"></polygon>,<polygon points="65,264 97,251 84,241" fill="rgb(58,58,58)" fill-opacity="0.35294117647058826"></polygon>,<polygon points="10,277 37,273 0,255" fill="rgb(41,41,41)" fill-opacity="0.35294117647058826"></polygon>,<polygon points="82,239 0,234 37,246" fill="rgb(76,76,76)" fill-opacity="0.35294117647058826"></polygon>,<polygon points="142,1 90,52 59,0" fill="rgb(202,202,202)" fill-opacity="0.35294117647058826"></polygon>,<polygon points="1,31 1,-5 51,0" fill="rgb(185,185,185)" fill-opacity="0.35294117647058826"></polygon>,<polygon points="307,248 247,232 289,227" fill="rgb(44,44,44)" fill-opacity="0.35294117647058826"></polygon>,<polygon points="16,179 91,213 99,194" fill="rgb(122,122,122)" fill-opacity="0.35294117647058826"></polygon>,<polygon points="80,218 95,221 92,243" fill="rgb(90,90,90)" fill-opacity="0.35294117647058826"></polygon>,<polygon points="32,151 3,167 76,176" fill="rgb(142,142,142)" fill-opacity="0.35294117647058826"></polygon>,<polygon points="409,152 180,82 136,107" fill="rgb(191,191,191)" fill-opacity="0.35294117647058826"></polygon>,<polygon points="351,211 412,229 375,228" fill="rgb(124,124,124)" fill-opacity="0.35294117647058826"></polygon>,<polygon points="148,176 105,196 90,183" fill="rgb(130,130,130)" fill-opacity="0.35294117647058826"></polygon>,<polygon points="155,215 136,197 155,223" fill="rgb(107,107,107)" fill-opacity="0.35294117647058826"></polygon>,<polygon points="394,240 427,237 404,260" fill="rgb(101,101,101)" fill-opacity="0.35294117647058826"></polygon>,<polygon points="137,282 135,282 135,303" fill="rgb(56,56,56)" fill-opacity="0.35294117647058826"></polygon>,<polygon points="518,248 483,265 555,263" fill="rgb(78,78,78)" fill-opacity="0.35294117647058826"></polygon>,<polygon points="535,48 422,63 432,16" fill="rgb(217,217,217)" fill-opacity="0.35294117647058826"></polygon>,<polygon points="74,167 140,147 2,128" fill="rgb(160,160,160)" fill-opacity="0.35294117647058826"></polygon>,<polygon points="55,238 81,213 44,203" fill="rgb(99,99,99)" fill-opacity="0.35294117647058826"></polygon>,<polygon points="116,216 131,223 123,251" fill="rgb(80,80,80)" fill-opacity="0.35294117647058826"></polygon>,<polygon points="318,232 315,267 315,220" fill="rgb(30,30,30)" fill-opacity="0.35294117647058826"></polygon>,<polygon points="0,235 20,267 37,258" fill="rgb(60,60,60)" fill-opacity="0.35294117647058826"></polygon>,<polygon points="154,240 147,249 162,255" fill="rgb(24,24,24)" fill-opacity="0.35294117647058826"></polygon>,<polygon points="390,224 371,239 399,250" fill="rgb(97,97,97)" fill-opacity="0.35294117647058826"></polygon>,<polygon points="552,248 555,235 531,260" fill="rgb(95,95,95)" fill-opacity="0.35294117647058826"></polygon>,<polygon points="517,239 527,225 491,246" fill="rgb(126,126,126)" fill-opacity="0.35294117647058826"></polygon>,<polygon points="555,290 467,301 555,280" fill="rgb(36,36,36)" fill-opacity="0.35294117647058826"></polygon>,<polygon points="431,234 448,225 414,220" fill="rgb(124,124,124)" fill-opacity="0.35294117647058826"></polygon>,<polygon points="0,1 -6,45 0,175" fill="rgb(255,255,255)" fill-opacity="0.35294117647058826"></polygon>,<polygon points="190,256 197,308 197,232" fill="rgb(30,30,30)" fill-opacity="0.35294117647058826"></polygon>,<polygon points="551,211 547,236 560,215" fill="rgb(139,139,139)" fill-opacity="0.35294117647058826"></polygon>,<polygon points="264,308 251,308 259,288" fill="rgb(0,0,0)" fill-opacity="0.35294117647058826"></polygon>,<polygon points="548,213 516,182 555,182" fill="rgb(169,168,169)" fill-opacity="0.35294117647058826"></polygon>,<polygon points="205,308 227,275 232,308" fill="rgb(8,8,8)" fill-opacity="0.35294117647058826"></polygon>,<polygon points="494,243 504,259 427,264" fill="rgb(95,95,95)" fill-opacity="0.35294117647058826"></polygon>,<polygon points="1,57 1,126 27,73" fill="rgb(170,170,170)" fill-opacity="0.35294117647058826"></polygon>,<polygon points="309,292 311,308 318,288" fill="rgb(30,30,30)" fill-opacity="0.35294117647058826"></polygon>,<polygon points="465,228 435,217 455,237" fill="rgb(139,139,139)" fill-opacity="0.35294117647058826"></polygon>,<polygon points="549,278 511,270 479,295" fill="rgb(51,51,51)" fill-opacity="0.35294117647058826"></polygon>,<polygon points="30,0 31,41 88,41" fill="rgb(191,191,191)" fill-opacity="0.35294117647058826"></polygon>,<polygon points="80,257 64,283 73,283" fill="rgb(42,42,42)" fill-opacity="0.35294117647058826"></polygon>,<polygon points="373,228 328,226 358,242" fill="rgb(91,91,91)" fill-opacity="0.35294117647058826"></polygon>,<polygon points="236,203 193,194 232,215" fill="rgb(118,119,118)" fill-opacity="0.35294117647058826"></polygon>,<polygon points="273,267 269,236 301,263" fill="rgb(22,22,22)" fill-opacity="0.35294117647058826"></polygon>,<polygon points="187,146 60,77 135,100" fill="rgb(180,180,180)" fill-opacity="0.35294117647058826"></polygon>,<polygon points="276,152 259,121 189,138" fill="rgb(180,180,180)" fill-opacity="0.35294117647058826"></polygon>,<polygon points="155,260 134,235 126,265" fill="rgb(32,32,32)" fill-opacity="0.35294117647058826"></polygon>,<polygon points="398,285 423,312 428,287" fill="rgb(31,31,31)" fill-opacity="0.35294117647058826"></polygon>,<polygon points="204,241 196,217 208,218" fill="rgb(90,90,90)" fill-opacity="0.35294117647058826"></polygon>,<polygon points="405,308 392,283 335,308" fill="rgb(25,25,25)" fill-opacity="0.35294117647058826"></polygon>,<polygon points="1,90 15,121 143,141" fill="rgb(172,172,172)" fill-opacity="0.35294117647058826"></polygon>,<polygon points="71,289 111,260 79,317" fill="rgb(29,29,29)" fill-opacity="0.35294117647058826"></polygon>]</svg>