<svg width="480" height="316" xmlns="http://www.w3.org/2000/svg">[
,,,,,,,,,,,,,]
 <g>
  <title>background</title>
  <rect fill="none" id="canvas_background" height="318" width="482" y="-1" x="-1"/>
 </g>
 <g>
  <title>Layer 1</title>
  <rect id="svg_1" fill="rgb(210,210,210)" height="539" width="479" y="0" x="0"/>
  <polygon id="svg_2" fill-opacity="0.505882" fill="rgb(253,254,253)" points="479,0 479,312 0,0"/>
  <polygon id="svg_3" fill-opacity="0.505882" fill="rgb(167,167,167)" points="0,539 0,257 479,539"/>
  <polygon id="svg_4" fill-opacity="0.505882" fill="rgb(182,182,182)" points="479,539 181,363 479,358"/>
  <polygon id="svg_5" fill-opacity="0.505882" fill="rgb(239,239,239)" points="0,177 362,237 0,0"/>
  <polygon id="svg_6" fill-opacity="0.505882" fill="rgb(215,215,215)" points="0,172 479,335 479,153"/>
  <polygon id="svg_7" fill-opacity="0.505882" fill="rgb(202,203,202)" points="479,381 0,226 0,407"/>
  <polygon id="svg_8" fill-opacity="0.505882" fill="rgb(178,178,178)" points="479,539 0,419 0,539"/>
  <polygon id="svg_9" fill-opacity="0.505882" fill="rgb(207,207,207)" points="0,220 157,354 0,324"/>
  <polygon id="svg_10" fill-opacity="0.505882" fill="rgb(184,184,184)" points="479,461 479,538 274,418"/>
  <polygon id="svg_11" fill-opacity="0.505882" fill="rgb(242,242,242)" points="479,139 0,0 479,0"/>
  <polygon id="svg_12" fill-opacity="0.505882" fill="rgb(239,239,239)" points="0,89 167,110 0,0"/>
  <polygon id="svg_13" fill-opacity="0.505882" fill="rgb(198,198,198)" points="40,293 441,348 229,452"/>
  <polygon id="svg_14" fill-opacity="0.505882" fill="rgb(208,208,208)" points="479,225 217,299 479,418"/>
 </g></svg>