<!--?xml version="1.0" standalone="no"?-->
<svg xmlns="http://www.w3.org/2000/svg" version="1.2" baseProfile="tiny" width="960" height="539">
[<rect x="0" y="0" width="959" height="538" fill="rgb(154,188,207)" fill-opacity="1"></rect>,<polygon points="338 216 322 341 214 327 230 202" fill="rgb(59,137,167)" fill-opacity="0.5882352941176471"></polygon>,<polygon points="285 338 399 362 392 393 278 369" fill="rgb(255,242,255)" fill-opacity="0.5882352941176471"></polygon>,<polygon points="656 163 489 160 490 100 657 103" fill="rgb(65,141,170)" fill-opacity="0.5882352941176471"></polygon>,<polygon points="86 366 52 240 98 228 132 354" fill="rgb(77,146,170)" fill-opacity="0.5882352941176471"></polygon>,<polygon points="375 304 395 181 503 198 483 321" fill="rgb(84,150,178)" fill-opacity="0.5882352941176471"></polygon>,<polygon points="922 160 959 160 959 186 922 186" fill="rgb(253,243,255)" fill-opacity="0.5882352941176471"></polygon>,<polygon points="858 -6 945 77 895 129 808 45" fill="rgb(238,234,250)" fill-opacity="0.5882352941176471"></polygon>,<polygon points="567 476 508 503 497 481 556 453" fill="rgb(54,134,164)" fill-opacity="0.5882352941176471"></polygon>,<polygon points="27 366 28 397 1 398 0 367" fill="rgb(255,243,255)" fill-opacity="0.5882352941176471"></polygon>,<polygon points="672 97 609 19 666 -26 729 51" fill="rgb(221,224,238)" fill-opacity="0.5882352941176471"></polygon>,<polygon points="639 186 670 238 620 269 588 216" fill="rgb(226,227,241)" fill-opacity="0.5882352941176471"></polygon>,<polygon points="639 437 738 437 738 538 639 538" fill="rgb(229,229,244)" fill-opacity="0.5882352941176471"></polygon>,<polygon points="336 301 377 314 362 362 321 349" fill="rgb(238,233,255)" fill-opacity="0.5882352941176471"></polygon>,<polygon points="213 211 241 246 217 266 188 231" fill="rgb(235,231,251)" fill-opacity="0.5882352941176471"></polygon>,<polygon points="142 313 180 252 214 274 177 334" fill="rgb(237,232,249)" fill-opacity="0.5882352941176471"></polygon>,<polygon points="471 461 470 520 404 519 405 460" fill="rgb(207,215,231)" fill-opacity="0.5882352941176471"></polygon>,<polygon points="750 350 817 350 817 458 750 458" fill="rgb(227,227,245)" fill-opacity="0.5882352941176471"></polygon>,<polygon points="718 189 726 242 666 251 658 197" fill="rgb(74,143,171)" fill-opacity="0.5882352941176471"></polygon>,<polygon points="558 391 640 443 611 488 530 435" fill="rgb(224,226,240)" fill-opacity="0.5882352941176471"></polygon>,<polygon points="837 339 747 336 750 232 840 235" fill="rgb(76,144,175)" fill-opacity="0.5882352941176471"></polygon>,<polygon points="818 97 741 130 731 108 808 75" fill="rgb(41,129,167)" fill-opacity="0.5882352941176471"></polygon>,<polygon points="114 4 88 103 4 80 30 -17" fill="rgb(216,221,235)" fill-opacity="0.5882352941176471"></polygon>,<polygon points="577 499 619 499 619 538 577 538" fill="rgb(79,147,170)" fill-opacity="0.5882352941176471"></polygon>,<polygon points="107 16 171 -14 185 13 121 44" fill="rgb(44,134,171)" fill-opacity="0.5882352941176471"></polygon>,<polygon points="194 218 180 202 205 178 219 193" fill="rgb(225,226,242)" fill-opacity="0.5882352941176471"></polygon>,<polygon points="291 79 277 13 355 -2 368 62" fill="rgb(214,221,239)" fill-opacity="0.5882352941176471"></polygon>,<polygon points="287 497 164 456 202 340 325 381" fill="rgb(108,162,181)" fill-opacity="0.5882352941176471"></polygon>,<polygon points="534 277 494 249 526 205 566 234" fill="rgb(255,243,255)" fill-opacity="0.5882352941176471"></polygon>,<polygon points="922 505 960 510 957 540 919 535" fill="rgb(255,251,255)" fill-opacity="0.5882352941176471"></polygon>,<polygon points="866 404 885 488 826 501 807 418" fill="rgb(76,144,173)" fill-opacity="0.5882352941176471"></polygon>,<polygon points="726 -6 769 9 753 53 710 37" fill="rgb(74,145,175)" fill-opacity="0.5882352941176471"></polygon>,<polygon points="510 237 501 267 460 254 469 225" fill="rgb(223,226,239)" fill-opacity="0.5882352941176471"></polygon>,<polygon points="394 346 376 310 400 298 418 334" fill="rgb(76,148,178)" fill-opacity="0.5882352941176471"></polygon>,<polygon points="474 331 462 353 420 329 432 307" fill="rgb(241,233,252)" fill-opacity="0.5882352941176471"></polygon>,<polygon points="485 338 566 302 578 329 497 365" fill="rgb(236,231,244)" fill-opacity="0.5882352941176471"></polygon>,<polygon points="739 285 783 336 762 354 718 303" fill="rgb(86,151,183)" fill-opacity="0.5882352941176471"></polygon>,<polygon points="847 240 836 198 914 178 924 220" fill="rgb(102,159,183)" fill-opacity="0.5882352941176471"></polygon>,<polygon points="65 361 -1 347 2 328 69 342" fill="rgb(53,134,164)" fill-opacity="0.5882352941176471"></polygon>,<polygon points="482 395 519 389 526 435 489 441" fill="rgb(77,146,175)" fill-opacity="0.5882352941176471"></polygon>,<polygon points="755 482 726 497 718 482 748 467" fill="rgb(72,145,186)" fill-opacity="0.5882352941176471"></polygon>,<polygon points="464 138 447 104 463 95 480 129" fill="rgb(255,246,255)" fill-opacity="0.5882352941176471"></polygon>,<polygon points="320 492 339 454 359 463 340 501" fill="rgb(249,238,255)" fill-opacity="0.5882352941176471"></polygon>,<polygon points="544 92 545 65 619 66 618 93" fill="rgb(255,245,246)" fill-opacity="0.5882352941176471"></polygon>,<polygon points="803 345 845 340 852 401 810 406" fill="rgb(241,234,253)" fill-opacity="0.5882352941176471"></polygon>,<polygon points="928 424 937 395 961 402 952 432" fill="rgb(85,147,175)" fill-opacity="0.5882352941176471"></polygon>,<polygon points="382 203 356 160 390 140 416 183" fill="rgb(239,234,254)" fill-opacity="0.5882352941176471"></polygon>,<polygon points="863 306 844 264 895 242 913 283" fill="rgb(246,238,255)" fill-opacity="0.5882352941176471"></polygon>,<polygon points="281 100 322 69 342 96 302 127" fill="rgb(97,160,189)" fill-opacity="0.5882352941176471"></polygon>,<polygon points="567 254 580 278 514 314 500 289" fill="rgb(90,153,178)" fill-opacity="0.5882352941176471"></polygon>,<polygon points="946 283 921 302 903 279 927 259" fill="rgb(55,134,170)" fill-opacity="0.5882352941176471"></polygon>,<polygon points="573 166 582 178 563 191 555 180" fill="rgb(243,235,255)" fill-opacity="0.5882352941176471"></polygon>,<polygon points="46 441 114 440 115 475 47 476" fill="rgb(94,154,176)" fill-opacity="0.5882352941176471"></polygon>,<polygon points="103 -2 119 21 84 44 68 20" fill="rgb(233,235,248)" fill-opacity="0.5882352941176471"></polygon>,<polygon points="561 522 554 541 535 534 543 515" fill="rgb(98,152,172)" fill-opacity="0.5882352941176471"></polygon>,<polygon points="490 86 504 45 550 61 536 101" fill="rgb(208,218,224)" fill-opacity="0.5882352941176471"></polygon>,<polygon points="681 277 744 220 760 239 698 295" fill="rgb(247,239,254)" fill-opacity="0.5882352941176471"></polygon>,<polygon points="765 209 689 178 712 122 788 153" fill="rgb(218,222,239)" fill-opacity="0.5882352941176471"></polygon>,<polygon points="312 222 263 189 283 160 332 193" fill="rgb(231,228,241)" fill-opacity="0.5882352941176471"></polygon>,<polygon points="637 443 599 418 618 389 657 414" fill="rgb(238,235,250)" fill-opacity="0.5882352941176471"></polygon>,<polygon points="4 86 41 94 33 136 -4 128" fill="rgb(91,156,184)" fill-opacity="0.5882352941176471"></polygon>,<polygon points="700 293 730 344 693 365 664 314" fill="rgb(81,148,173)" fill-opacity="0.5882352941176471"></polygon>,<polygon points="113 57 169 29 177 43 121 72" fill="rgb(223,226,238)" fill-opacity="0.5882352941176471"></polygon>]</svg>