<!--?xml version="1.0" standalone="no"?-->
<svg xmlns="http://www.w3.org/2000/svg" version="1.2" baseProfile="tiny" width="480" height="540">
[<rect x="0" y="0" width="479" height="539" fill="rgb(210,210,210)" fill-opacity="1"></rect>,<polygon points="479,0 479,312 0,0" fill="rgb(253,254,253)" fill-opacity="0.5058823529411764"></polygon>,<polygon points="0,539 0,257 479,539" fill="rgb(167,167,167)" fill-opacity="0.5058823529411764"></polygon>,<polygon points="479,539 181,363 479,358" fill="rgb(182,182,182)" fill-opacity="0.5058823529411764"></polygon>,<polygon points="0,177 362,237 0,0" fill="rgb(239,239,239)" fill-opacity="0.5058823529411764"></polygon>,<polygon points="0,172 479,335 479,153" fill="rgb(215,215,215)" fill-opacity="0.5058823529411764"></polygon>,<polygon points="479,381 0,226 0,407" fill="rgb(202,203,202)" fill-opacity="0.5058823529411764"></polygon>,<polygon points="479,539 0,419 0,539" fill="rgb(178,178,178)" fill-opacity="0.5058823529411764"></polygon>,<polygon points="0,220 157,354 0,324" fill="rgb(207,207,207)" fill-opacity="0.5058823529411764"></polygon>,<polygon points="479,461 479,538 274,418" fill="rgb(184,184,184)" fill-opacity="0.5058823529411764"></polygon>,<polygon points="479,139 0,0 479,0" fill="rgb(242,242,242)" fill-opacity="0.5058823529411764"></polygon>,<polygon points="0,89 167,110 0,0" fill="rgb(239,239,239)" fill-opacity="0.5058823529411764"></polygon>,<polygon points="40,293 441,348 229,452" fill="rgb(198,198,198)" fill-opacity="0.5058823529411764"></polygon>,<polygon points="479,225 217,299 479,418" fill="rgb(208,208,208)" fill-opacity="0.5058823529411764"></polygon>]</svg>